<svg width="23" height="22" viewBox="0 0 23 22" fill="none" xmlns="http://www.w3.org/2000/svg">
<g clip-path="url(#clip0_177_2260)">
<path d="M13.2317 0.162827C12.1447 0.0509935 11.0522 -0.00335652 9.95909 0.000160311C6.33498 0.000160311 4.08307 2.24366 4.08307 5.85614V8.30842H1.03878C0.74137 8.30822 0.500132 8.5425 0.5 8.83165V12.8661C0.499803 13.1553 0.740779 13.3898 1.03818 13.3899H4.08307V21.4762C4.08287 21.7653 4.32385 21.9998 4.62125 22H8.90784C9.20525 22.0002 9.44642 21.7659 9.44662 21.4768V13.3899H12.4815C12.7522 13.3899 12.981 13.1947 13.0161 12.9337L13.5517 8.89974C13.5902 8.61303 13.3823 8.35023 13.0873 8.31283C13.064 8.30989 13.0406 8.30842 13.0171 8.30842H9.44662V6.25616C9.44662 5.24026 9.65708 4.81569 10.964 4.81569L13.1612 4.81467C13.4586 4.8148 13.6998 4.58058 13.7 4.29144V0.68254C13.7001 0.419614 13.4998 0.197355 13.2317 0.162827ZM12.6224 3.76706L10.964 3.76808C8.63846 3.76808 8.36907 5.18809 8.36907 6.25616V8.83228C8.36894 9.12136 8.60985 9.3559 8.90725 9.35603H12.4046L12.0079 12.3423H8.90784C8.61044 12.3422 8.36927 12.5764 8.36907 12.8656V20.9524H5.16062V12.8661C5.16082 12.577 4.91984 12.3425 4.6225 12.3423H1.57755V9.35603H4.62184C4.91925 9.35622 5.16042 9.12194 5.16062 8.8328V5.85614C5.16062 2.84528 6.95472 1.04777 9.95909 1.04777C11.0461 1.04777 12.0279 1.10506 12.6224 1.15519V3.76706Z" fill="#0E243C"/>
</g>
<defs>
<clipPath id="clip0_177_2260">
<rect width="22" height="22" fill="white" transform="translate(0.5)"/>
</clipPath>
</defs>
</svg>
