<svg width="24" height="24" viewBox="0 0 24 24" fill="none" xmlns="http://www.w3.org/2000/svg">
<path d="M12 2.40039C7.71001 2.40039 4.20001 5.67558 4.20001 9.71675C4.20001 18.3273 11.3314 21.2174 11.6379 21.4815C11.8329 21.64 12.1672 21.64 12.3622 21.4815C12.6686 21.2174 19.8 18.3009 19.8 9.71675C19.8 5.67558 16.29 2.40039 12 2.40039ZM12 20.3458C10.5514 19.0251 5.3143 16.7426 5.3143 9.71675C5.3143 6.25667 8.32287 3.4569 12 3.4569C15.6772 3.4569 18.6857 6.25667 18.6857 9.71675C18.6857 16.7426 13.4486 19.0251 12 20.3458ZM12 5.56993C9.54858 5.56993 7.54287 7.47166 7.54287 9.79599C7.54287 12.1203 9.54858 14.022 12 14.022C14.4514 14.022 16.4572 12.1203 16.4572 9.79599C16.4572 7.47166 14.4514 5.56993 12 5.56993ZM12 12.9655C10.1614 12.9655 8.65715 11.5392 8.65715 9.79599C8.65715 8.05274 10.1614 6.62645 12 6.62645C13.8386 6.62645 15.3429 8.05274 15.3429 9.79599C15.3429 11.5392 13.8386 12.9655 12 12.9655Z" fill="#0E243C"/>
</svg>
