<svg width="23" height="22" viewBox="0 0 23 22" fill="none" xmlns="http://www.w3.org/2000/svg">
<path d="M17.1082 13.4767C15.6123 13.3453 15.8835 15.4879 13.3333 14.2083C10.7832 12.9286 9.20834 11.4583 8.29167 9.16658C7.375 6.87492 9.13249 6.87862 8.9975 5.38075C8.86466 3.90666 7.66375 1.83325 7.66375 1.83325H4.22534C3.19134 1.83325 2.37734 2.68759 2.53225 3.70967C2.91725 6.26075 4.05392 10.8872 7.375 14.2083C10.8629 17.6962 15.8872 19.2096 18.6518 19.8118C19.7198 20.0438 20.6667 19.2114 20.6667 18.1178V14.8325C20.6667 14.8325 18.5896 13.607 17.1082 13.4767Z" stroke="#0E243C" stroke-linecap="round" stroke-linejoin="round"/>
<path d="M12.6 5.5C14.0667 5.57333 17 6.556 17 9.9" stroke="#0E243C" stroke-linecap="round"/>
<path d="M13.15 2.19995C15.5333 2.31912 20.3 3.91595 20.3 9.34995" stroke="#0E243C" stroke-linecap="round"/>
</svg>
