<svg width="80" height="80" viewBox="0 0 80 80" fill="none" xmlns="http://www.w3.org/2000/svg">
<rect width="80" height="80" rx="40" fill="white"/>
<path d="M38.1318 29H41.9097V50H38.1318V29Z" fill="#0E243C"/>
<path d="M67 29V32.7499H58.3258V50H54.5479V32.7499H45.8737V29H67Z" fill="#0E243C"/>
<path d="M31.0295 29.0949H16.0316C14.3572 29.0949 13 30.4421 13 32.104V46.9909C13 48.6528 14.3572 50 16.0316 50H31.0295C32.7037 50 34.0609 48.6528 34.0609 46.9909V32.104C34.0609 30.4421 32.7037 29.0949 31.0295 29.0949Z" fill="#0E243C"/>
<path d="M30.0854 46.2762C29.9809 46.3151 29.8764 46.3542 29.7662 46.3784C28.6497 46.6257 27.5008 46.0223 27.0855 44.9253L25.8336 41.6195C25.7476 41.4824 25.5739 41.4287 25.4245 41.4846L24.5733 41.802L23.5419 42.2287L22.4876 41.802L21.6363 41.4846C21.4871 41.4287 21.3133 41.4824 21.2273 41.6195L19.9754 44.9253C19.5601 46.0223 18.4111 46.6257 17.2947 46.3784C17.1845 46.3542 17.08 46.3151 16.9754 46.2762L16.1242 45.9585L16.8259 44.1055L17.6716 44.438C17.8209 44.4936 17.9946 44.4399 18.0806 44.3029L19.338 40.9823C19.3773 40.8787 19.4166 40.7748 19.4709 40.6766C19.6447 40.3523 19.8971 40.0913 20.1922 39.8969C20.0992 39.5575 20.0826 39.1961 20.167 38.8384C20.1913 38.729 20.2306 38.6254 20.2698 38.5216L21.5273 35.2011C21.5535 35.0416 21.4585 34.8877 21.3091 34.832L20.4578 34.5144L21.1595 32.6614L22.0108 32.9791C22.1153 33.018 22.2199 33.0571 22.3188 33.1109C23.323 33.6547 23.787 34.8598 23.3716 35.9567L22.1199 39.2626C22.0935 39.4219 22.1887 39.5758 22.338 39.6316L23.5419 40.1251L24.7228 39.6316C24.8722 39.5758 24.9674 39.4219 24.9411 39.2626L23.6892 35.9567C23.2739 34.8598 23.7379 33.6547 24.7422 33.1109C24.841 33.0571 24.9456 33.018 25.05 32.9791L25.9014 32.6614L26.6031 34.5144L25.7518 34.832C25.6024 34.8877 25.5074 35.0416 25.5336 35.2011L26.7911 38.5216C26.8303 38.6254 26.8696 38.729 26.8939 38.8384C26.9783 39.1961 26.9618 39.5575 26.8688 39.8969C27.1638 40.0913 27.4162 40.3523 27.59 40.6766C27.6443 40.7748 27.6835 40.8787 27.7229 40.9823L28.9803 44.3029C29.0662 44.4399 29.24 44.4936 29.3893 44.438L30.235 44.1055L30.9367 45.9585L30.0854 46.2762Z" fill="white"/>
</svg>
