<svg width="23" height="22" viewBox="0 0 23 22" fill="none" xmlns="http://www.w3.org/2000/svg">
<g clip-path="url(#clip0_177_2172)">
<path d="M6.24095 0.5H16.759C19.6535 0.5 22 2.84645 22 5.74095V16.259C22 19.1535 19.6535 21.5 16.759 21.5H6.24095C3.34645 21.5 1 19.1535 1 16.259V5.74095C1 2.84645 3.34645 0.5 6.24095 0.5Z" stroke="#0E243C" stroke-linecap="round" stroke-linejoin="round"/>
<path d="M11.5 16.5C14.5376 16.5 17 14.0376 17 11C17 7.96243 14.5376 5.5 11.5 5.5C8.46243 5.5 6 7.96243 6 11C6 14.0376 8.46243 16.5 11.5 16.5Z" stroke="#0E243C" stroke-linecap="round" stroke-linejoin="round"/>
<path d="M17.55 4.40005C17.8538 4.40005 18.1 4.15381 18.1 3.85005C18.1 3.54629 17.8538 3.30005 17.55 3.30005C17.2462 3.30005 17 3.54629 17 3.85005C17 4.15381 17.2462 4.40005 17.55 4.40005Z" stroke="#0E243C" stroke-linecap="round" stroke-linejoin="round"/>
</g>
<defs>
<clipPath id="clip0_177_2172">
<rect width="22" height="22" fill="white" transform="translate(0.5)"/>
</clipPath>
</defs>
</svg>
