<svg width="23" height="22" viewBox="0 0 23 22" fill="none" xmlns="http://www.w3.org/2000/svg">
<g clip-path="url(#clip0_177_2520)">
<path d="M5.79417 7.70463C5.79391 7.70463 5.79371 7.70463 5.79352 7.70463H1.48217C1.18468 7.70443 0.943444 7.95034 0.943247 8.25378C0.943247 8.25405 0.943247 8.25425 0.943247 8.25445V21.4502C0.94305 21.7537 1.18409 21.9998 1.48151 22C1.48177 22 1.48197 22 1.48217 22H5.79352C6.091 22.0002 6.33224 21.7543 6.33243 21.4508C6.33243 21.4506 6.33243 21.4504 6.33243 21.4502V8.25445C6.33263 7.95095 6.09159 7.70483 5.79417 7.70463ZM5.2546 20.9004H2.02108V8.80427H5.2546V20.9004ZM17.1108 7.70463C15.9415 7.7047 14.8049 8.0984 13.8773 8.82468V8.25445C13.8775 7.95095 13.6365 7.70483 13.339 7.70463C13.3388 7.70463 13.3386 7.70463 13.3384 7.70463H9.02703C8.72954 7.70443 8.48831 7.95034 8.48811 8.25378C8.48811 8.25405 8.48811 8.25425 8.48811 8.25445V21.4502C8.48791 21.7537 8.72895 21.9998 9.02644 22C9.02663 22 9.02683 22 9.02703 22H13.3384C13.6359 22.0002 13.8771 21.7543 13.8773 21.4508C13.8773 21.4506 13.8773 21.4504 13.8773 21.4502V15.4021C13.8773 14.4912 14.6011 13.7527 15.4941 13.7527C16.387 13.7527 17.1108 14.4912 17.1108 15.4021V21.4502C17.1106 21.7537 17.3517 21.9998 17.6491 22C17.6493 22 17.6495 22 17.6497 22H21.9611C22.2586 22.0002 22.4998 21.7543 22.5 21.4508C22.5 21.4506 22.5 21.4504 22.5 21.4502V13.2028C22.4965 10.1678 20.0857 7.70819 17.1108 7.70463ZM21.4222 20.9004H18.1886V15.4021C18.1886 13.8838 16.9823 12.653 15.4941 12.653C14.0058 12.653 12.7995 13.8838 12.7995 15.4021V20.9004H9.56595V8.80427H12.7995V10.1273C12.7995 10.3609 12.9443 10.569 13.1606 10.646C13.3763 10.7253 13.6176 10.6548 13.7595 10.4709C15.2281 8.57205 17.9274 8.2474 19.7886 9.74579C20.8254 10.5805 21.4279 11.8555 21.4222 13.2028V20.9004ZM4.03446 0.00913449C3.9077 7.36488e-05 3.78046 -0.000597414 3.65363 0.00712099C2.02687 -0.10624 0.618067 1.1473 0.506954 2.80697C0.502481 2.87375 0.500244 2.9406 0.500113 3.00752C0.4861 4.65309 1.78228 5.99865 3.39522 6.01295C3.46107 6.01355 3.52686 6.01181 3.59258 6.00785H3.6231C5.24677 6.12376 6.65505 4.87484 6.76866 3.21833C6.88227 1.56182 5.65813 0.125045 4.03446 0.00913449ZM3.99723 4.91136C3.87276 4.92303 3.74737 4.92203 3.6231 4.9082H3.59258C2.56204 4.98901 1.66249 4.20227 1.58328 3.15088C1.50407 2.09956 2.27522 1.18173 3.30575 1.10093C3.42167 1.09186 3.53811 1.09381 3.65363 1.10676C4.68338 1.00998 5.59511 1.78317 5.69003 2.83375C5.7849 3.8844 5.02704 4.81457 3.99723 4.91136Z" fill="#0E243C"/>
</g>
<defs>
<clipPath id="clip0_177_2520">
<rect width="22" height="22" fill="white" transform="translate(0.5)"/>
</clipPath>
</defs>
</svg>
