<svg width="23" height="22" viewBox="0 0 23 22" fill="none" xmlns="http://www.w3.org/2000/svg">
<path d="M20.4048 5.5H2.59526C2.35038 5.5 2.15002 5.6999 2.15002 5.94423V16.6058C2.15002 16.8501 2.35038 17.05 2.59526 17.05H20.4048C20.6497 17.05 20.85 16.8501 20.85 16.6058V5.94423C20.85 5.6999 20.6497 5.5 20.4048 5.5ZM19.9595 16.1615H3.0405V8.50744L11.273 13.434C11.3397 13.4739 11.4199 13.4962 11.5 13.4962C11.5802 13.4962 11.6603 13.4739 11.7271 13.434L19.9595 8.50744V16.1615ZM19.9595 7.46794L11.5 12.5322L3.0405 7.46794V6.38846H19.9595V7.46794Z" fill="#0E243C"/>
</svg>
